<svg xmlns="http://www.w3.org/2000/svg" width="680" height="460" viewBox="0 0 680 460" role="img">
<title>SYNTHETIC DEMO: distribution and tail behavior — 经验累积分布 / ECDF</title>
<desc>Data: 4aeaae24d117f81de48aab6576ef13aeeed0263bae30e99866bf206b73bc8011; Synthetic workflow demonstration only; role=SYNTHETIC_DEMO</desc>
<rect width="680" height="460" fill="white"/>
<style>text{font-family:Georgia, serif;fill:#172033} .muted{fill:#526174}</style>
<text x="24.000" y="30.000" font-size="20" text-anchor="start" class="" >SYNTHETIC DEMO: distribution and tail behavior</text>
<text x="24.000" y="80.000" font-size="13" text-anchor="start" class="muted" >ECDF · synthetic observation</text>
<text x="656.000" y="80.000" font-size="11" text-anchor="end" class="muted" >SYNTHETIC DEMO</text>
<line x1="132.000" y1="350.000" x2="616.000" y2="350.000" stroke="#8290a1" stroke-width="1" />
<line x1="132.000" y1="350.000" x2="132.000" y2="355.000" stroke="#cbd5e1" stroke-width="1" />
<text x="132.000" y="373.000" font-size="12" text-anchor="middle" class="muted" >27.5</text>
<line x1="253.000" y1="350.000" x2="253.000" y2="355.000" stroke="#cbd5e1" stroke-width="1" />
<text x="253.000" y="373.000" font-size="12" text-anchor="middle" class="muted" >43.8</text>
<line x1="374.000" y1="350.000" x2="374.000" y2="355.000" stroke="#cbd5e1" stroke-width="1" />
<text x="374.000" y="373.000" font-size="12" text-anchor="middle" class="muted" >60</text>
<line x1="495.000" y1="350.000" x2="495.000" y2="355.000" stroke="#cbd5e1" stroke-width="1" />
<text x="495.000" y="373.000" font-size="12" text-anchor="middle" class="muted" >76.2</text>
<line x1="616.000" y1="350.000" x2="616.000" y2="355.000" stroke="#cbd5e1" stroke-width="1" />
<text x="616.000" y="373.000" font-size="12" text-anchor="middle" class="muted" >92.5</text>
<text x="374.000" y="402.000" font-size="14" text-anchor="middle" class="" >percent</text>
<line x1="132.000" y1="100.000" x2="132.000" y2="350.000" stroke="#8290a1" stroke-width="1" />
<line x1="132.000" y1="350.000" x2="616.000" y2="350.000" stroke="#cbd5e1" stroke-width="1" stroke-dasharray="2 5"/>
<text x="122.000" y="354.000" font-size="12" text-anchor="end" class="muted" >0</text>
<line x1="132.000" y1="287.500" x2="616.000" y2="287.500" stroke="#cbd5e1" stroke-width="1" stroke-dasharray="2 5"/>
<text x="122.000" y="291.500" font-size="12" text-anchor="end" class="muted" >0.25</text>
<line x1="132.000" y1="225.000" x2="616.000" y2="225.000" stroke="#cbd5e1" stroke-width="1" stroke-dasharray="2 5"/>
<text x="122.000" y="229.000" font-size="12" text-anchor="end" class="muted" >0.5</text>
<line x1="132.000" y1="162.500" x2="616.000" y2="162.500" stroke="#cbd5e1" stroke-width="1" stroke-dasharray="2 5"/>
<text x="122.000" y="166.500" font-size="12" text-anchor="end" class="muted" >0.75</text>
<line x1="132.000" y1="100.000" x2="616.000" y2="100.000" stroke="#cbd5e1" stroke-width="1" stroke-dasharray="2 5"/>
<text x="122.000" y="104.000" font-size="12" text-anchor="end" class="muted" >1</text>
<text x="24.000" y="225.000" font-size="13" text-anchor="middle" class="" transform="rotate(-90 24 225.0)">Empirical probability</text>
<polyline points="132.000,350.000 157.929,350.000 157.929,329.167 210.084,329.167 210.084,308.333 232.436,308.333 232.436,287.500 277.140,287.500 277.140,266.667 321.845,266.667 321.845,245.833 344.197,245.833 344.197,225.000 396.352,225.000 396.352,204.167 426.155,204.167 426.155,183.333 455.958,183.333 455.958,162.500 485.761,162.500 485.761,141.667 508.113,141.667 508.113,120.833 537.916,120.833 537.916,100.000 616.000,100.000" fill="none" stroke="#0891b2" stroke-width="2" />
<polyline points="132.000,350.000 217.534,350.000 217.534,329.167 247.337,329.167 247.337,308.333 292.042,308.333 292.042,287.500 314.394,287.500 314.394,266.667 381.451,266.667 381.451,245.833 418.704,245.833 418.704,225.000 433.606,225.000 433.606,204.167 470.860,204.167 470.860,183.333 500.663,183.333 500.663,162.500 537.916,162.500 537.916,141.667 560.268,141.667 560.268,120.833 590.071,120.833 590.071,100.000 616.000,100.000" fill="none" stroke="#2563eb" stroke-width="2" />
<text x="132.000" y="425.000" font-size="11" text-anchor="start" class="muted" >Reference (n=12)</text>
<text x="277.000" y="425.000" font-size="11" text-anchor="start" class="muted" >Variant (n=12)</text>
<text x="24.000" y="449.000" font-size="10" text-anchor="start" class="muted" >Candidate only · FIG-10211808929867 · data 4aeaae24d117</text>
</svg>